<?xml version="1.0" encoding="utf-8"?>
<!-- Generator: Adobe Illustrator 22.1.0, SVG Export Plug-In . SVG Version: 6.00 Build 0)  -->
<svg version="1.1" id="Layer_1" xmlns="http://www.w3.org/2000/svg" xmlns:xlink="http://www.w3.org/1999/xlink" x="0px" y="0px"
	 viewBox="0 0 135 45" style="enable-background:new 0 0 135 45;" xml:space="preserve">
<style type="text/css">
	.st0{fill:#FFFFFF;}
</style>
<g id="Acne_Care_Logo_1_">
	<g>
		<path class="st0" d="M79.7,2C78.3,2.6,77,3.5,76,4.6c-1.1,1.1-1.9,2.3-2.6,3.8c-0.6,1.5-1,3.1-1,4.8c0,1.8,0.3,3.5,0.8,5
			c0.6,1.5,1.4,2.7,2.4,3.8c1.4,1.5,2.9,2.1,3.7,2.5c1.1,0.5,3.7,1.6,7.1,0.9c1.6-0.3,2.8-0.9,3.6-1.4c-0.2-0.3-0.5-0.5-0.7-0.8
			c-0.5,0.3-1.2,0.7-2.2,0.9c-0.3,0.1-3,0.6-5.4-1c-0.2-0.1-1.1-0.7-2-2.1c-1.3-2-1.9-4.6-1.9-7.8c0-3.2,0.6-5.8,1.9-7.8
			c1.3-1.9,3.1-3.6,5.4-4l0.3,0V0.8l-1.3,0C82.7,1,81.1,1.4,79.7,2z"/>
		<path class="st0" d="M92.8,6.7V1.8c-0.5-0.1-1-0.3-1.5-0.4c-1.8-0.4-3.5-0.5-4.9-0.5v0.5c0.9,0.4,2.1,0.9,3.3,1.9
			C91.2,4.5,92.2,5.8,92.8,6.7z"/>
		<g>
			<g>
				<g>
					<path class="st0" d="M62.3,22.4c-0.7-0.1-1.3-0.2-1.9-0.5c-0.3-0.1-0.5-0.2-0.6-0.3c-0.4-0.2-0.7-0.5-1-0.9
						c-0.5-0.5-0.9-1.2-1.1-2c-0.3-0.8-0.4-1.8-0.4-3c0-1.5,0.3-2.8,0.9-4c0.5-1.1,1.4-2.4,2.6-2.7L61,9.1V8.6c-0.7,0-1.8,0.2-3,0.7
						c-0.3,0.2-1.4,0.7-2.4,1.7c-0.7,0.7-1.3,1.6-1.7,2.5c-0.4,1-0.7,2.1-0.7,3.2c0,1.2,0.2,2.4,0.5,3.5c0.4,1.1,0.9,2,1.6,2.8
						c0.7,0.8,1.5,1.4,2.5,1.8c1,0.4,2.1,0.6,3.3,0.6c0.9,0,1.7-0.1,2.4-0.4c0.7-0.2,1.3-0.6,1.9-1c0.5-0.4,1-0.8,1.4-1.3
						c0.4-0.5,0.6-0.9,0.9-1.3l0-0.1c-0.1-0.1-0.2-0.2-0.3-0.3c-0.3,0.2-0.7,0.5-1.3,0.7C64.5,22.6,63.1,22.5,62.3,22.4z"/>
				</g>
				<g>
					<path class="st0" d="M59.5,18.1c0.6,0.2,1.4,0.3,2.2,0.3c3.6,0,6.5-2.4,6.5-5.3c0-2.5-2.4-4.5-5.8-4.5V9
						c1.1,0.6,1.4,1.8,1.4,3.1c0,3.2-2,5.6-4.3,5.8V18.1z"/>
				</g>
			</g>
		</g>
		<g>
			<g>
				<g>
					<polygon class="st0" points="36.8,25.2 40.8,25.2 40.8,9 36.8,9 					"/>
				</g>
				<g>
					<path class="st0" d="M46.7,8.6c-3,0-4.9,2.5-5.2,2.8v1c2.2-1.6,4.6-1.6,5.5-0.6c0.1,0.2,0.5,0.6,0.5,2v11.3h3.9V13.6
						c0-1.5-0.4-2.7-1.2-3.6C49,8.6,47.3,8.6,46.7,8.6z"/>
				</g>
			</g>
		</g>
		<g>
			<polygon class="st0" points="102.4,25.2 106.3,25.2 106.3,9 102.4,9 			"/>
			<path class="st0" d="M91.3,17.7c0,4.5,2.4,7.8,6.2,7.8c2.2,0,3.2-1.3,4.3-3.3l-0.1-0.2c-0.6,0.3-1.1,0.5-1.8,0.5
				c-2.5,0-4.4-2.4-4.4-5.8c0-4.4,2.7-7.4,6.2-7.4V9.1c-0.7-0.3-1.7-0.5-2.7-0.5C94.2,8.6,91.3,12.4,91.3,17.7z"/>
		</g>
		<g>
			<path class="st0" d="M128.9,22.4c-0.7-0.1-1.3-0.2-1.9-0.5c-0.3-0.1-0.5-0.2-0.6-0.3c-0.4-0.2-0.7-0.5-1-0.9
				c-0.5-0.5-0.9-1.2-1.1-2c-0.3-0.8-0.4-1.8-0.4-3c0-1.5,0.3-2.8,0.9-4c0.5-1.1,1.4-2.4,2.6-2.7l0.3-0.1V8.6c-0.7,0-1.8,0.2-3,0.7
				c-0.3,0.2-1.4,0.7-2.4,1.7c-0.7,0.7-1.3,1.6-1.7,2.5c-0.4,1-0.7,2.1-0.7,3.2c0,1.2,0.2,2.4,0.5,3.5c0.4,1.1,0.9,2,1.6,2.8
				c0.7,0.8,1.5,1.4,2.5,1.8c1,0.4,2.1,0.6,3.3,0.6c0.9,0,1.7-0.1,2.4-0.4c0.7-0.2,1.3-0.6,1.9-1c0.5-0.4,1-0.8,1.4-1.3
				c0.4-0.5,0.6-0.9,0.9-1.3l0-0.1c-0.1-0.1-0.2-0.2-0.3-0.3c-0.3,0.2-0.7,0.5-1.3,0.7C131.1,22.6,129.6,22.5,128.9,22.4z"/>
			<path class="st0" d="M126,18.1c0.6,0.2,1.4,0.3,2.2,0.3c3.6,0,6.5-2.4,6.5-5.3c0-2.5-2.4-4.5-5.8-4.5V9c1.1,0.6,1.4,1.8,1.4,3.1
				c0,3.2-2,5.6-4.3,5.8V18.1z"/>
		</g>
		<g>
			<path class="st0" d="M118,8.7c-1.5,0-2.6,1-3,1.3c-1.1,1.1-1.5,2.3-1.6,2.9c0.1,0.1,0.2,0.2,0.2,0.3c0.2-0.2,0.5-0.4,0.9-0.6
				c0.4-0.2,1.4-0.7,2.8-0.7c0.9,0,1.6,0.2,2.1,0.5V9.1C118.9,8.8,118.4,8.8,118,8.7z"/>
			<polygon class="st0" points="108.9,25.4 112.8,25.4 112.8,9.2 108.9,9.2 			"/>
		</g>
		<path class="st0" d="M29.9,22.6c-0.7-0.1-1.3-0.2-1.9-0.5c-0.3-0.1-0.5-0.2-0.6-0.3c-0.4-0.2-0.7-0.5-1-0.9
			c-0.5-0.5-0.9-1.2-1.1-2c-0.3-0.8-0.4-1.8-0.4-3c0-1.5,0.3-2.8,0.9-4c0.5-1.1,1.4-2.4,2.6-2.7l0.3-0.1V8.8c-0.7,0-1.8,0.2-3,0.7
			c-0.3,0.2-1.4,0.7-2.4,1.7c-0.7,0.7-1.3,1.6-1.7,2.5c-0.4,1-0.7,2.1-0.7,3.2c0,1.2,0.2,2.4,0.5,3.5c0.4,1.1,0.9,2,1.6,2.8
			c0.7,0.8,1.5,1.4,2.5,1.8c1,0.4,2.1,0.6,3.3,0.6c0.9,0,1.7-0.1,2.4-0.4c0.7-0.2,1.3-0.6,1.9-1c0.5-0.4,1-0.8,1.4-1.3
			c0.4-0.5,0.6-0.9,0.9-1.3l0-0.1c-0.1-0.1-0.2-0.2-0.3-0.3c-0.3,0.2-0.7,0.5-1.3,0.7C32.1,22.8,30.6,22.7,29.9,22.6z"/>
		<path class="st0" d="M31.9,10.9c0.9,1.1,1,2.3,1,2.7l0.7,0l0.9-4.1c-0.6-0.2-1.4-0.4-2.2-0.5c-1-0.2-1.9-0.2-2.7-0.2v0.4
			C29.9,9.4,31,9.8,31.9,10.9z"/>
		<polygon class="st0" points="20.1,25.3 8.6,0.6 6,4.7 15.6,25.3 		"/>
		<path class="st0" d="M5.2,25.1c-0.3-0.8-0.5-1.7-0.5-2.5c0-0.4-0.1-1.7,0.6-3.2c0.2-0.4,0.4-0.7,0.6-1L6,18.3l-0.3-0.4l-0.1,0
			c-0.5,0.1-1,0.2-1.4,0.4h0c-3.2,1.5-4,5.1-4,6.8v0.2h5.1L5.2,25.1z"/>
	</g>
	<g>
		<path class="st0" d="M1.2,42.2c0,0.4,0.2,0.8,0.5,1.1c0.3,0.3,0.7,0.4,1.1,0.4c0.4,0,0.8-0.1,1.1-0.4c0.3-0.3,0.5-0.7,0.5-1.1
			c0-0.4-0.2-0.8-0.5-1.1c-0.3-0.3-0.7-0.4-1.1-0.4h0c-1.3,0-2.4-1-2.4-2.3C0.3,37,1.4,36,2.8,36s2.4,1,2.4,2.3H4.3
			c0-0.4-0.2-0.8-0.4-1c-0.3-0.3-0.6-0.4-1.1-0.4c-0.8,0-1.5,0.6-1.5,1.4c0,0.4,0.2,0.7,0.4,1c0.3,0.3,0.7,0.4,1.1,0.4h0
			c1.4,0,2.5,1,2.5,2.4c0,1.4-1.1,2.4-2.5,2.4s-2.5-1.1-2.5-2.4H1.2z"/>
		<path class="st0" d="M7.5,41.7c0.1,1.1,1,2,2,2c0.8,0,1.4-0.4,1.8-1h1c-0.5,1.1-1.4,1.8-2.8,1.8c-1.6,0-3-1.4-3-3
			c0-1.7,1.3-3,2.9-3c1.6,0,2.9,1.3,2.9,2.8c0,0.1,0,0.2,0,0.3H7.5z M11.5,40.9c-0.2-0.9-1-1.5-2-1.5S7.8,40,7.6,40.9H11.5z"/>
		<path class="st0" d="M22.2,44.4h-0.9v-3.5c0-0.9-0.5-1.5-1.3-1.5c-0.8,0-1.4,0.6-1.4,1.5v3.4h-0.9v-3.5c0-0.9-0.5-1.5-1.3-1.5
			c-0.8,0-1.4,0.6-1.4,1.5v3.4h-0.9v-5.6H15v0.7c0.3-0.6,0.9-0.9,1.7-0.9c0.7,0,1.4,0.4,1.8,1c0.4-0.6,1-1,1.8-1c1.2,0,2,0.9,2,2.1
			V44.4z"/>
		<path class="st0" d="M24.8,36.3c0.4,0,0.7,0.3,0.7,0.7s-0.3,0.7-0.7,0.7c-0.4,0-0.7-0.3-0.7-0.7S24.5,36.3,24.8,36.3z M24.4,38.7
			h0.9v5.6h-0.9V38.7z"/>
		<path class="st0" d="M32.3,44.4h-0.9V41c0-0.9-0.6-1.6-1.5-1.6s-1.5,0.6-1.5,1.6v3.4h-0.9v-5.6h0.8v0.7c0.4-0.6,1.1-0.9,1.8-0.9
			c1.2,0,2.2,0.9,2.2,2.2V44.4z"/>
		<path class="st0" d="M40,38.7v5.6h-0.8v-0.9c-0.5,0.7-1.3,1.1-2.2,1.1c-1.6,0-3-1.4-2.9-3c0-1.6,1.4-3,2.9-3
			c0.9,0,1.7,0.4,2.2,1.1v-0.9H40z M37,39.4c-1.2,0-2.1,0.9-2.1,2.1c0,1.2,1,2.1,2.1,2.1s2.1-0.9,2.1-2.1
			C39.1,40.4,38.2,39.4,37,39.4z"/>
		<path class="st0" d="M44.7,38.7v0.9h0c-1,0-1.6,0.7-1.6,1.6v3.2h-0.9v-5.6H43v0.8C43.4,39,44,38.7,44.7,38.7L44.7,38.7z"/>
		<path class="st0" d="M51.6,38.7v5.6h-0.8v-0.9c-0.5,0.7-1.3,1.1-2.2,1.1c-1.6,0-3-1.4-2.9-3c0-1.6,1.4-3,2.9-3
			c0.9,0,1.7,0.4,2.2,1.1v-0.9H51.6z M48.7,39.4c-1.2,0-2.1,0.9-2.1,2.1c0,1.2,1,2.1,2.1,2.1s2.1-0.9,2.1-2.1
			C50.8,40.4,49.8,39.4,48.7,39.4z"/>
		<path class="st0" d="M54.3,36.3c0.4,0,0.7,0.3,0.7,0.7s-0.3,0.7-0.7,0.7c-0.4,0-0.7-0.3-0.7-0.7S53.9,36.3,54.3,36.3z M53.8,38.7
			h0.9v5.6h-0.9V38.7z"/>
	</g>
	
		<rect x="96.9" y="6.5" transform="matrix(-1.836970e-16 1 -1 -1.836970e-16 141.2527 -53.3481)" class="st0" width="0.8" height="74.9"/>
</g>
</svg>
