<?xml version="1.0" encoding="utf-8"?>
<!-- Generator: Adobe Illustrator 22.1.0, SVG Export Plug-In . SVG Version: 6.00 Build 0)  -->
<svg version="1.1" id="Layer_1" xmlns="http://www.w3.org/2000/svg" xmlns:xlink="http://www.w3.org/1999/xlink" x="0px" y="0px"
	 viewBox="0 0 100 25" style="enable-background:new 0 0 100 25;" xml:space="preserve">
<style type="text/css">
	.st0{fill:#FFFFFF;}
</style>
<g id="OdaSveikata_Logo_1_">
	<g>
		<g>
			<path class="st0" d="M17.9,13.7c0.8-0.2,1.7-0.5,2.5-0.7c3-0.8,5.9-0.4,8.6,1.3c0.2,0.1,0.4,0.2,0.6,0.4c0-1.2,0-2.3,0-3.4
				c-2.8-1.5-5.6-2-8.3-1.4c-2.8,0.6-5.5,1.3-8.8,2.2c-3.7,1.1-7,0.7-10-1.3c-0.1,0-0.1-0.1-0.2-0.1c0,0.1,0,0.3,0,0.4
				c0,1,0,2,0,2.9c3,1.6,6,2.1,9,1.4C13.4,14.9,15.6,14.3,17.9,13.7z"/>
			<path class="st0" d="M21,3.5c-2.7-0.7-5.5-1.3-8.7-2.3c-3.6-1-6.9-0.7-10.2,1c0,0.9,0,1.7,0,2.6c0,0.3,0,0.5,0,0.8
				c2-1.3,4-1.9,6.1-1.9c0.9,0,1.8,0.1,2.7,0.3c1.9,0.5,3.8,1,5.7,1.5c1.2,0.3,2.5,0.7,3.7,1c3.1,0.8,6.2,0.5,9.2-1.1
				c0-1.1,0-2.3,0-3.4C26.8,3.7,24,4.2,21,3.5z"/>
			<path class="st0" d="M2.2,23.3c2-1.3,4-1.9,6.1-1.9c0.9,0,1.8,0.1,2.7,0.3c2,0.5,4.1,1.1,6,1.6c1,0.3,1.9,0.5,2.9,0.8
				c3.4,0.9,6.5,0.6,9.5-1.1c0-1.1,0-2.1,0-3.2c-2.9,1.8-6,2.3-9.2,1.4c-2.8-0.8-5.8-1.7-8.8-2.4c-3.1-0.8-6.1-0.4-9.2,1.2
				C2.2,21.1,2.2,22.2,2.2,23.3z"/>
		</g>
	</g>
	<g>
		<g>
			<path class="st0" d="M61.7,6.3"/>
			<g>
				<path class="st0" d="M42.3,12c-0.8,0-1.6-0.1-2.3-0.4c-0.7-0.3-1.3-0.7-1.8-1.2c-0.5-0.5-0.9-1.1-1.2-1.8
					c-0.3-0.7-0.4-1.4-0.4-2.1c0-0.5,0.1-1,0.2-1.4c0.1-0.5,0.3-0.9,0.6-1.3c0.2-0.4,0.5-0.8,0.9-1.1c0.3-0.3,0.7-0.6,1.2-0.8
					c0.4-0.2,0.9-0.4,1.4-0.5s1-0.2,1.5-0.2c0.5,0,1.1,0.1,1.6,0.2c0.5,0.1,1,0.3,1.4,0.5c0.4,0.2,0.8,0.5,1.2,0.8
					C46.7,3,47,3.4,47.3,3.8c0.2,0.4,0.4,0.8,0.6,1.3C48,5.5,48,6,48,6.5C48,7,48,7.5,47.8,8c-0.1,0.5-0.3,0.9-0.6,1.3
					c-0.2,0.4-0.5,0.8-0.9,1.1c-0.3,0.3-0.7,0.6-1.2,0.9c-0.4,0.2-0.9,0.4-1.4,0.6C43.3,12,42.8,12,42.3,12z M42.3,11.5
					c0.6,0,1.1-0.1,1.6-0.4c0.5-0.2,0.8-0.6,1.2-1s0.6-1,0.7-1.6c0.2-0.6,0.2-1.3,0.2-2c0-0.7-0.1-1.4-0.2-2C45.6,3.9,45.3,3.4,45,3
					s-0.7-0.8-1.2-1c-0.5-0.2-1-0.4-1.6-0.4c-0.6,0-1.1,0.1-1.6,0.4c-0.5,0.2-0.8,0.6-1.2,1c-0.3,0.4-0.5,0.9-0.7,1.5
					c-0.2,0.6-0.2,1.3-0.2,2c0,0.7,0.1,1.4,0.2,2c0.2,0.6,0.4,1.1,0.7,1.6c0.3,0.4,0.7,0.8,1.2,1C41.1,11.4,41.7,11.5,42.3,11.5z"/>
				<path class="st0" d="M54.9,0.6v3.7c-0.3-0.2-0.5-0.4-0.8-0.5c-0.3-0.1-0.6-0.2-1-0.2c-0.4,0-0.8,0.1-1.1,0.2
					c-0.1,0-0.3,0.1-0.5,0.2c-1.1,0.5-1.7,1.3-1.8,1.5c-0.2,0.3-0.4,0.7-0.5,0.8c-0.1,0.2-0.2,0.6-0.3,1.1c-0.1,1,0.1,1.8,0.2,2.1
					c0.2,0.5,0.5,1.4,1.5,2c1,0.6,2.1,0.5,2.3,0.5c0.7-0.1,1.2-0.4,1.4-0.5c0.3-0.1,0.5-0.3,0.6-0.4v0.8h1.6V0.6H54.9z M54.9,10.3
					c-0.1,0.1-0.2,0.2-0.4,0.3c-0.1,0.1-0.3,0.2-0.4,0.3C54,10.9,53.8,11,53.6,11c-0.2,0-0.3,0.1-0.5,0.1c-0.4,0-0.7-0.1-1-0.3
					c-0.3-0.2-0.6-0.5-0.8-0.8c-0.2-0.3-0.4-0.7-0.5-1.2c-0.1-0.4-0.2-0.9-0.2-1.4c0-0.5,0.1-0.9,0.2-1.3c0.1-0.4,0.3-0.7,0.5-1
					c0.2-0.3,0.5-0.5,0.7-0.7c0.3-0.2,0.6-0.2,0.9-0.2c0.2,0,0.5,0.1,0.7,0.2c0.2,0.1,0.5,0.2,0.6,0.4c0.2,0.2,0.3,0.4,0.5,0.7
					c0.1,0.3,0.2,0.5,0.2,0.9V10.3z"/>
				<path class="st0" d="M64.4,5.7c-0.1-0.5-0.1-0.7-0.5-1.1c-0.3-0.4-0.7-0.6-1-0.7c-0.7-0.3-1.3-0.3-1.9-0.3c-0.5,0-0.9,0-1.2,0.1
					c-0.2,0.1-0.5,0.1-0.9,0.3c-0.2,0.1-0.4,0.2-0.6,0.4c-0.1,0.1-0.4,0.4-0.5,0.9c0.4,0.1,0.8,0.2,1.2,0.4c0-0.1,0.1-0.8,0.7-1.2
					C60.2,4,60.7,4,61.1,4c0.2,0,1,0.1,1.5,0.7c0.3,0.4,0.4,0.8,0.4,1c0,0.4,0,0.7,0,1.1v0.7c-0.3-0.3-0.7-0.6-1.1-0.8
					c-0.4-0.2-0.9-0.3-1.4-0.3c-0.5,0-0.9,0.1-1.3,0.3c-0.4,0.2-0.7,0.4-1,0.7c-0.3,0.3-0.5,0.6-0.6,0.9c-0.1,0.3-0.2,0.7-0.2,1
					c0,0.3,0.1,0.6,0.2,1c0.1,0.3,0.3,0.6,0.5,0.8c0.2,0.3,0.5,0.5,0.9,0.6c0.4,0.2,0.8,0.2,1.3,0.2c0.5,0,1-0.1,1.5-0.3
					c0.5-0.2,0.9-0.4,1.2-0.7v0.8h1.5V7.5C64.5,6.7,64.5,6,64.4,5.7z M63,9.7c-0.1,0.3-0.3,0.5-0.4,0.6c-0.5,0.5-1,0.7-1.1,0.8
					c-0.1,0-0.3,0.1-0.6,0.1c-0.1,0-0.4,0-0.7-0.1c-0.7-0.3-1-1-1.1-1c-0.3-0.6-0.1-1.2,0-1.4c0-0.2,0.3-0.9,1-1.3
					c0.4-0.2,0.7-0.2,0.9-0.2c0.7,0,1.1,0.5,1.3,0.7C62.5,8,62.8,8.3,63,8.8V9.7z"/>
			</g>
			<g>
				<path class="st0" d="M41.1,24c0.3,0,0.5,0,0.8-0.1c0.3-0.1,0.5-0.2,0.7-0.3c0.2-0.1,0.4-0.3,0.5-0.5c0.1-0.2,0.2-0.4,0.2-0.7
					c0-0.3-0.1-0.6-0.2-0.9c-0.2-0.2-0.4-0.5-0.7-0.7s-0.6-0.4-0.9-0.6s-0.7-0.4-1.1-0.6c-0.4-0.2-0.7-0.4-1.1-0.6
					c-0.3-0.2-0.7-0.4-0.9-0.7c-0.3-0.2-0.5-0.5-0.7-0.8c-0.2-0.3-0.2-0.7-0.2-1.1c0-0.4,0.1-0.8,0.2-1.1c0.2-0.3,0.4-0.6,0.7-0.9
					c0.3-0.2,0.6-0.4,1.1-0.6c0.4-0.1,0.9-0.2,1.5-0.2c0.5,0,0.9,0.1,1.3,0.2c0.4,0.1,0.7,0.3,1,0.5c0.3,0.2,0.5,0.5,0.7,0.8
					c0.2,0.3,0.4,0.6,0.5,1l-0.9,0.4c-0.1-0.3-0.2-0.6-0.4-0.9c-0.2-0.3-0.4-0.5-0.6-0.7c-0.2-0.2-0.5-0.3-0.8-0.4
					c-0.3-0.1-0.6-0.2-1-0.2c-0.3,0-0.6,0-0.9,0.1c-0.2,0.1-0.5,0.2-0.6,0.4c-0.2,0.1-0.3,0.3-0.4,0.5c-0.1,0.2-0.1,0.4-0.1,0.6
					c0,0.3,0.1,0.5,0.3,0.8c0.2,0.2,0.4,0.4,0.7,0.6c0.3,0.2,0.6,0.4,1,0.6c0.4,0.2,0.7,0.4,1.1,0.6c0.4,0.2,0.7,0.4,1.1,0.6
					c0.4,0.2,0.7,0.4,1,0.7s0.5,0.5,0.7,0.8c0.2,0.3,0.3,0.6,0.3,1c0,0.4-0.1,0.8-0.2,1.2c-0.2,0.4-0.4,0.7-0.7,1
					c-0.3,0.3-0.7,0.5-1.2,0.6c-0.5,0.2-1,0.2-1.6,0.2c-0.5,0-1-0.1-1.3-0.2c-0.4-0.1-0.7-0.3-1-0.5c-0.3-0.2-0.6-0.5-0.8-0.8
					c-0.2-0.3-0.4-0.6-0.5-1l0.9-0.4c0.1,0.3,0.3,0.6,0.4,0.9c0.2,0.3,0.4,0.5,0.7,0.7c0.2,0.2,0.5,0.3,0.8,0.4
					C40.4,23.9,40.7,24,41.1,24z"/>
				<path class="st0" d="M47.3,16.3l2.9,6.1l2.7-6.1h0.7L50,24.5h-0.6l-3.8-8.2H47.3z"/>
				<path class="st0" d="M57.5,24.6c-0.1,0-0.7,0-1.4-0.3c-1.1-0.5-2-1.4-2.3-2.5c-0.1-0.4-0.1-0.8-0.1-1.1c0-0.9,0.2-1.6,0.3-1.8
					c0.1-0.4,0.6-1.7,2.1-2.4c0.2-0.1,1.6-0.7,3.1-0.1c1,0.5,1.8,1.4,2.1,2.5c0.1,0.3,0.1,0.5,0.1,0.7h-6c0,0.2,0,0.4,0,0.7
					c0,0.3,0.2,1.3,1,2.1c0.2,0.2,1.1,1,2.3,0.9c0.7-0.1,1.2-0.4,1.4-0.6c0.7-0.5,0.9-1.1,1.1-1.4l0.5,0.2c0,0.1-0.1,0.2-0.1,0.3
					C60.8,23.3,59.2,24.6,57.5,24.6z M59.2,18.9c0-0.2,0-0.5-0.2-0.9c-0.2-0.4-0.4-0.6-0.4-0.7c-0.1-0.1-0.6-0.7-1.5-0.6
					c-0.7,0-1.1,0.5-1.3,0.6c-0.3,0.3-0.4,0.5-0.4,0.7c-0.1,0.3-0.2,0.6-0.2,0.9L59.2,18.9z"/>
				<g>
					<rect x="62.9" y="16.2" class="st0" width="1.6" height="8.2"/>
				</g>
				<polygon class="st0" points="69.2,19.3 72.8,16.3 71.8,16.3 67.8,19.6 67.8,13.2 66.1,13.2 66.1,24.4 67.8,24.4 67.8,20 
					71.6,24.4 73.7,24.4 				"/>
				<path class="st0" d="M82.7,17v5.7c0,0.3,0,0.5,0.1,0.8c0.1,0.2,0.2,0.4,0.3,0.6c0.1,0.2,0.3,0.3,0.5,0.4s0.4,0.1,0.7,0.1
					c0.5,0,1-0.1,1.3-0.3c0.4-0.2,0.6-0.5,0.9-0.9L86,23.1c-0.1,0.1-0.2,0.2-0.4,0.3s-0.3,0.1-0.5,0.1c-0.1,0-0.2,0-0.3-0.1
					c-0.1,0-0.2-0.1-0.3-0.2c-0.1-0.1-0.1-0.2-0.2-0.3c0-0.1-0.1-0.2-0.1-0.3V17h1.8v-0.7h-1.8v-2.2h-1.6v2.2"/>
				<path class="st0" d="M81,18.3c-0.1-0.5-0.1-0.7-0.5-1.1c-0.3-0.4-0.7-0.6-1-0.7c-0.7-0.3-1.3-0.3-1.9-0.3c-0.5,0-0.9,0-1.2,0.1
					c-0.2,0.1-0.5,0.1-0.9,0.3c-0.2,0.1-0.4,0.2-0.6,0.4c-0.1,0.1-0.4,0.4-0.5,0.9c0.4,0.1,0.8,0.2,1.2,0.4c0-0.1,0.1-0.8,0.7-1.2
					c0.5-0.4,1-0.4,1.4-0.4c0.2,0,1,0.1,1.5,0.7c0.3,0.4,0.4,0.8,0.4,1c0,0.4,0,0.7,0,1.1v0.7c-0.3-0.3-0.7-0.6-1.1-0.8
					c-0.4-0.2-0.9-0.3-1.4-0.3c-0.5,0-0.9,0.1-1.3,0.3c-0.4,0.2-0.7,0.4-1,0.7c-0.3,0.3-0.5,0.6-0.6,0.9c-0.1,0.3-0.2,0.7-0.2,1
					c0,0.3,0.1,0.6,0.2,1c0.1,0.3,0.3,0.6,0.5,0.8c0.2,0.3,0.5,0.5,0.9,0.6c0.4,0.2,0.8,0.2,1.3,0.2c0.5,0,1-0.1,1.5-0.3
					c0.5-0.2,0.9-0.4,1.2-0.7v0.8h1.5v-4.3C81.2,19.3,81.1,18.7,81,18.3z M79.6,22.4c-0.1,0.3-0.3,0.5-0.4,0.6
					c-0.5,0.5-1,0.7-1.1,0.8c-0.1,0-0.3,0.1-0.6,0.1c-0.1,0-0.4,0-0.7-0.1c-0.7-0.3-1-1-1.1-1c-0.3-0.6-0.1-1.2,0-1.4
					c0-0.2,0.3-0.9,1-1.3c0.4-0.2,0.7-0.2,0.9-0.2c0.7,0,1.1,0.5,1.3,0.7c0.2,0.2,0.4,0.5,0.6,0.9V22.4z"/>
				<path class="st0" d="M94.1,18.3c-0.1-0.5-0.1-0.7-0.5-1.1c-0.3-0.4-0.7-0.6-1-0.7c-0.7-0.3-1.3-0.3-1.9-0.3
					c-0.5,0-0.9,0-1.2,0.1c-0.2,0.1-0.5,0.1-0.9,0.3c-0.2,0.1-0.4,0.2-0.6,0.4c-0.1,0.1-0.4,0.4-0.5,0.9c0.4,0.1,0.8,0.2,1.2,0.4
					c0-0.1,0.1-0.8,0.7-1.2c0.5-0.4,1-0.4,1.4-0.4c0.2,0,1,0.1,1.5,0.7c0.3,0.4,0.4,0.8,0.4,1c0,0.4,0,0.7,0,1.1v0.7
					c-0.3-0.3-0.7-0.6-1.1-0.8c-0.4-0.2-0.9-0.3-1.4-0.3c-0.5,0-0.9,0.1-1.3,0.3c-0.4,0.2-0.7,0.4-1,0.7c-0.3,0.3-0.5,0.6-0.6,0.9
					s-0.2,0.7-0.2,1c0,0.3,0.1,0.6,0.2,1c0.1,0.3,0.3,0.6,0.5,0.8c0.2,0.3,0.5,0.5,0.9,0.6c0.4,0.2,0.8,0.2,1.3,0.2
					c0.5,0,1-0.1,1.5-0.3c0.5-0.2,0.9-0.4,1.2-0.7v0.8h1.5v-4.3C94.2,19.3,94.1,18.7,94.1,18.3z M92.7,22.4
					c-0.1,0.3-0.3,0.5-0.4,0.6c-0.5,0.5-1,0.7-1.1,0.8c-0.1,0-0.3,0.1-0.6,0.1c-0.1,0-0.4,0-0.7-0.1c-0.7-0.3-1-1-1.1-1
					c-0.3-0.6-0.1-1.2,0-1.4c0-0.2,0.3-0.9,1-1.3c0.4-0.2,0.7-0.2,0.9-0.2c0.7,0,1.1,0.5,1.3,0.7c0.2,0.2,0.4,0.5,0.6,0.9V22.4z"/>
				<rect x="62.9" y="13.2" class="st0" width="1.6" height="1.4"/>
			</g>
			<rect x="67.7" y="7.7" class="st0" width="26.5" height="0.5"/>
		</g>
	</g>
</g>
</svg>
